<svg width="87" height="49" viewBox="0 0 87 49" fill="none" xmlns="http://www.w3.org/2000/svg">
<path d="M20.8637 22.3307C23.0006 22.3307 24.7328 20.5548 24.7328 18.3641C24.7328 16.1734 23.0006 14.3975 20.8637 14.3975C18.7269 14.3975 16.9946 16.1734 16.9946 18.3641C16.9946 20.5548 18.7269 22.3307 20.8637 22.3307Z" stroke="white" stroke-width="0.731399" stroke-miterlimit="10"/>
<path d="M23.9585 10.2721C26.0953 10.2721 27.8276 8.4962 27.8276 6.30549C27.8276 4.11479 26.0953 2.33887 23.9585 2.33887C21.8216 2.33887 20.0894 4.11479 20.0894 6.30549C20.0894 8.4962 21.8216 10.2721 23.9585 10.2721Z" stroke="white" stroke-width="0.731399" stroke-miterlimit="10"/>
<path d="M24.1096 6.74159C24.1406 6.73953 24.1708 6.73085 24.1981 6.71613C24.2254 6.70141 24.2493 6.68099 24.2681 6.65626C24.6484 6.13209 24.1657 5.97606 24.1657 5.97606L16.6883 6.57337C16.6526 6.57798 16.6163 6.5738 16.5825 6.56121C16.5487 6.54862 16.5185 6.52798 16.4945 6.50109C16.4705 6.4742 16.4534 6.44186 16.4447 6.40688C16.436 6.37189 16.4359 6.33532 16.4445 6.30031C16.5765 5.67774 16.8052 5.07969 17.1223 4.52789C17.1608 4.45771 17.2174 4.39916 17.2862 4.35837C17.355 4.31759 17.4336 4.29606 17.5136 4.29606C17.5936 4.29606 17.6722 4.31759 17.741 4.35837C17.8099 4.39916 17.8665 4.45771 17.9049 4.52789L17.9025 5.14226C17.8999 5.18413 17.9101 5.22578 17.9317 5.26172C17.9739 5.32609 18.0307 5.37956 18.0975 5.41776C18.1291 5.43422 18.1643 5.44272 18.2 5.44252C18.2357 5.44233 18.2707 5.43344 18.3022 5.41663C18.3336 5.39982 18.3605 5.3756 18.3805 5.34606C18.4005 5.31651 18.413 5.28255 18.4169 5.2471C18.4754 4.7595 18.49 3.66727 17.4709 3.62339C16.0959 3.55512 15.7375 6.15647 15.6522 7.1146C15.648 7.15977 15.6535 7.20531 15.6683 7.24819C15.6831 7.29107 15.7068 7.33031 15.738 7.3633C15.7691 7.39628 15.8069 7.42225 15.8489 7.43949C15.8908 7.45672 15.936 7.46481 15.9813 7.46324H17.1028C17.1337 7.46342 17.1642 7.47005 17.1923 7.4827C17.2205 7.49534 17.2457 7.51373 17.2664 7.53667C17.287 7.55962 17.3026 7.58663 17.3123 7.61596C17.3219 7.6453 17.3253 7.67632 17.3222 7.70704L16.7981 13.3486C16.7939 13.4015 16.7706 13.451 16.7324 13.4878C16.6942 13.5247 16.6438 13.5463 16.5908 13.5485L15.0208 13.6411C14.9874 13.6428 14.9542 13.6368 14.9234 13.6238C14.8927 13.6108 14.8653 13.591 14.8433 13.566C14.8212 13.5409 14.8052 13.5112 14.7962 13.479C14.7873 13.4469 14.7857 13.4131 14.7916 13.3803C14.846 13.1094 14.8786 12.8347 14.8891 12.5587C14.8891 12.2807 14.6453 12.1783 14.5185 12.1003C14.5012 12.0887 14.4813 12.0815 14.4605 12.0794C14.4397 12.0773 14.4188 12.0804 14.3995 12.0883C14.3802 12.0963 14.3631 12.1089 14.3499 12.125C14.3366 12.1411 14.3276 12.1603 14.3235 12.1808L13.7018 15.1527C13.6938 15.1875 13.6945 15.2237 13.7039 15.2581C13.7132 15.2926 13.7309 15.3242 13.7554 15.3502C13.8285 15.4253 13.9265 15.4712 14.0309 15.4794C14.0802 15.4837 14.1296 15.4714 14.1711 15.4445C14.2126 15.4175 14.244 15.3775 14.2601 15.3307L14.5161 14.5993C14.5294 14.5593 14.554 14.524 14.5869 14.4977C14.6197 14.4713 14.6595 14.4549 14.7014 14.4505L16.5689 14.2653C16.6032 14.2617 16.6378 14.2662 16.67 14.2785C16.7022 14.2908 16.731 14.3104 16.7542 14.336L20.7525 18.7244C20.7731 18.7472 20.7983 18.7655 20.8265 18.7781C20.8546 18.7907 20.885 18.7973 20.9158 18.7975H21.067C21.1134 18.7977 21.1588 18.7832 21.1964 18.7561C21.2341 18.7289 21.2622 18.6905 21.2767 18.6463L23.1734 13.0243C23.1855 12.9886 23.1882 12.9503 23.1814 12.9132C23.1746 12.8761 23.1584 12.8413 23.1344 12.8122L18.746 7.54613C18.7259 7.52338 18.711 7.49659 18.7022 7.46757C18.6933 7.43855 18.6908 7.40798 18.6948 7.37791V7.32671C18.7009 7.2761 18.7245 7.22919 18.7614 7.19404C18.7983 7.1589 18.8463 7.1377 18.8972 7.13411L24.1096 6.74159ZM22.1373 14.0141L20.9183 17.3566C20.905 17.3921 20.8829 17.4236 20.8541 17.4481C20.8252 17.4726 20.7905 17.4893 20.7534 17.4967C20.7163 17.504 20.6779 17.5017 20.6418 17.49C20.6058 17.4783 20.5734 17.4575 20.5477 17.4298L17.8488 14.5042C17.822 14.4746 17.8036 14.4383 17.7957 14.3991C17.7878 14.3599 17.7906 14.3193 17.8038 14.2816C17.817 14.2439 17.8402 14.2105 17.8709 14.1849C17.9016 14.1592 17.9386 14.1424 17.978 14.136L21.8788 13.507C21.9094 13.504 21.9402 13.5073 21.9693 13.5168C21.9985 13.5263 22.0254 13.5417 22.0483 13.5621C22.0712 13.5825 22.0897 13.6074 22.1025 13.6353C22.1152 13.6631 22.1221 13.6934 22.1226 13.724V13.9361C22.1327 13.9609 22.1377 13.9874 22.1373 14.0141ZM21.7569 12.6757L17.7708 13.3047C17.738 13.3081 17.7047 13.3042 17.6736 13.2932C17.6424 13.2821 17.6142 13.2643 17.5908 13.2409C17.5674 13.2175 17.5496 13.1893 17.5385 13.1581C17.5275 13.127 17.5236 13.0937 17.527 13.0609L18.0146 8.42868C18.0224 8.38976 18.0405 8.35365 18.067 8.3241C18.0935 8.29456 18.1275 8.27267 18.1653 8.26072C18.2032 8.24877 18.2436 8.24719 18.2822 8.25615C18.3209 8.26511 18.3565 8.28428 18.3852 8.31166L21.8886 12.3124C21.9142 12.3422 21.9314 12.3783 21.9385 12.417C21.9455 12.4557 21.9422 12.4955 21.9288 12.5325C21.9154 12.5694 21.8924 12.6022 21.8622 12.6273C21.832 12.6525 21.7957 12.6692 21.7569 12.6757Z" fill="white" stroke="white" stroke-width="0.2438" stroke-miterlimit="10"/>
<path d="M65.6303 41.2967L67.3101 36.8303L63.4995 34.0461H68.3731L69.9309 29.6211L71.2012 34.1265H75.8699L71.9374 36.7498L73.1272 41.2967L69.6847 38.7148" fill="#F57520"/>
<path d="M45.5347 48.7633H50.4261L64.033 1.62793H59.1417L45.5347 48.7633Z" fill="white"/>
<path fill-rule="evenodd" clip-rule="evenodd" d="M52.7383 48.7628L54.2502 44.0493H71.4145L71.7135 44.0495C72.1662 44.05 72.5971 44.0505 73.0115 44.04C75.2979 43.9127 77.3865 42.6619 78.9997 41.0186C80.6746 39.3124 81.6133 37.0161 81.6136 34.6239C81.6137 32.2159 80.6633 29.9055 78.9695 28.1958C78.1033 27.3215 77.0894 26.9108 75.9837 26.7155C75.2852 26.6225 74.5812 26.5667 73.8929 26.5429C73.575 26.5361 73.2529 26.5339 72.9278 26.5318C72.8228 26.5311 72.7175 26.5303 72.6119 26.5295V26.5292H58.8748L60.2088 22.2603H66.9678C68.1738 22.2603 68.8877 22.2729 69.5087 22.2839C70.5363 22.3021 71.3097 22.3158 73.6379 22.2603C74.8619 22.2312 75.6672 22.1925 76.3827 21.9992C77.54 21.5659 78.6006 20.8822 79.4828 19.9832C81.0516 18.3844 81.9309 16.2324 81.9312 13.9907C81.9313 11.7342 81.0694 9.27717 79.4828 7.67505C77.8965 6.07327 75.7531 5.82592 73.5007 5.80743H65.1002L66.0785 1.62751H72.126C72.6095 1.62751 72.9971 1.62295 73.3334 1.61899C74.4817 1.60547 75.0309 1.59901 76.7506 1.80538C76.989 1.83399 77.2073 1.878 77.4097 1.93574C79.4346 2.29055 81.2992 3.03294 82.8138 4.56234C85.2684 7.04111 86.6069 10.4995 86.6228 13.9907C86.6076 17.4597 85.2409 20.7856 82.8138 23.2604C82.5034 23.5768 82.1775 23.8529 81.8378 24.0939C82.0669 24.269 82.29 24.4648 82.5068 24.6836C85.1273 27.3287 86.6052 30.8984 86.6222 34.6239C86.6059 38.3257 85.1469 41.8749 82.5558 44.5158C80.8908 46.2127 78.8426 47.4117 76.6103 48.074C75.36 48.5111 73.9324 48.7628 72.3039 48.7628H52.7383Z" fill="white"/>
<path d="M0.88916 1.62695H5.69163L17.1642 41.3807L15.3855 48.7623L0.88916 1.62695Z" fill="white"/>
<path d="M17.2539 48.7623H21.9674L31.9281 10.1647L43.3117 48.7623L45.624 41.2028L33.7068 1.62695H29.2601L17.2539 48.7623Z" fill="white"/>
</svg>
